<svg xmlns="http://www.w3.org/2000/svg" width="30" height="28.127" viewBox="0 0 30 28.127">
  <path id="menu-up" d="M14.336,28.851a.938.938,0,0,0,1.327,0l3.474-3.476H26.25A3.75,3.75,0,0,0,30,21.625V4.75A3.75,3.75,0,0,0,26.25,1H3.75A3.75,3.75,0,0,0,0,4.75V21.625a3.75,3.75,0,0,0,3.75,3.75h7.112ZM1.875,16V10.375h26.25V16Zm26.25,1.875v3.75A1.875,1.875,0,0,1,26.25,23.5H19.138a1.875,1.875,0,0,0-1.325.549L15,26.862l-2.812-2.812a1.875,1.875,0,0,0-1.326-.549H3.75a1.875,1.875,0,0,1-1.875-1.875v-3.75Zm0-9.375H1.875V4.75A1.875,1.875,0,0,1,3.75,2.875h22.5A1.875,1.875,0,0,1,28.125,4.75ZM3.75,20.688a.938.938,0,0,0,.938.938h15a.938.938,0,0,0,0-1.875h-15A.938.938,0,0,0,3.75,20.688Zm0-7.5a.938.938,0,0,0,.938.938H25.313a.938.938,0,0,0,0-1.875H4.688A.938.938,0,0,0,3.75,13.188Zm0-7.5a.938.938,0,0,0,.938.938h11.25a.938.938,0,0,0,0-1.875H4.688A.938.938,0,0,0,3.75,5.688Z" transform="translate(0 -1)" fill="#585858"/>
</svg>
